  0
SECTION
  2
HEADER
  9
$ACADVER
  1
AC1009
  9
$EXTMIN
 10
0.0
 20
0.0
 30
0.0
  9
$EXTMAX
 10
1000.0
 20
1000.0
 30
0.0
  9
$FILLMODE
 70
 0
  9
$SPLFRAME
 70
 1
  0
ENDSEC
  0
SECTION
  2
TABLES
  0
TABLE
  2
LAYER
 70
1
  0
LAYER
  2
0
 70
     0
 62
     7
  6
CONTINUOUS
  0
ENDTAB
  0
ENDSEC
  0
SECTION
  2
ENTITIES
  0
LINE
  8
0
 62
     0
 10
285.469
 20
40.9924
 30
0.0
 11
281.969
 21
40.9924
 31
0.0
  0
LINE
  8
0
 62
     0
 10
281.969
 20
40.9924
 30
0.0
 11
281.196
 21
40.87
 31
0.0
  0
LINE
  8
0
 62
     0
 10
281.196
 20
40.87
 30
0.0
 11
280.5
 21
40.5158
 31
0.0
  0
LINE
  8
0
 62
     0
 10
280.5
 20
40.5158
 30
0.0
 11
279.947
 21
39.963
 31
0.0
  0
LINE
  8
0
 62
     0
 10
279.947
 20
39.963
 30
0.0
 11
279.592
 21
39.2659
 31
0.0
  0
LINE
  8
0
 62
     0
 10
279.592
 20
39.2659
 30
0.0
 11
279.469
 21
38.4941
 31
0.0
  0
LINE
  8
0
 62
     0
 10
279.469
 20
38.4941
 30
0.0
 11
279.592
 21
37.7197
 31
0.0
  0
LINE
  8
0
 62
     0
 10
279.592
 20
37.7197
 30
0.0
 11
279.947
 21
37.0237
 31
0.0
  0
LINE
  8
0
 62
     0
 10
279.947
 20
37.0237
 30
0.0
 11
280.5
 21
36.4698
 31
0.0
  0
LINE
  8
0
 62
     0
 10
280.5
 20
36.4698
 30
0.0
 11
281.196
 21
36.1142
 31
0.0
  0
LINE
  8
0
 62
     0
 10
281.196
 20
36.1142
 30
0.0
 11
281.969
 21
35.9929
 31
0.0
  0
LINE
  8
0
 62
     0
 10
281.969
 20
35.9929
 30
0.0
 11
285.469
 21
35.9929
 31
0.0
  0
LINE
  8
0
 62
     0
 10
285.469
 20
35.9929
 30
0.0
 11
285.469
 21
0.228755
 31
0.0
  0
LINE
  8
0
 62
     0
 10
285.469
 20
0.228755
 30
0.0
 11
0.0950846
 21
0.228755
 31
0.0
  0
LINE
  8
0
 62
     0
 10
0.0950846
 20
0.228755
 30
0.0
 11
0.0950846
 21
35.9929
 31
0.0
  0
LINE
  8
0
 62
     0
 10
0.0950846
 20
35.9929
 30
0.0
 11
3.59392
 21
35.9929
 31
0.0
  0
LINE
  8
0
 62
     0
 10
3.59392
 20
35.9929
 30
0.0
 11
4.367
 21
36.1142
 31
0.0
  0
LINE
  8
0
 62
     0
 10
4.367
 20
36.1142
 30
0.0
 11
5.06293
 21
36.4698
 31
0.0
  0
LINE
  8
0
 62
     0
 10
5.06293
 20
36.4698
 30
0.0
 11
5.61689
 21
37.0237
 31
0.0
  0
LINE
  8
0
 62
     0
 10
5.61689
 20
37.0237
 30
0.0
 11
5.97105
 21
37.7197
 31
0.0
  0
LINE
  8
0
 62
     0
 10
5.97105
 20
37.7197
 30
0.0
 11
6.09505
 21
38.4926
 31
0.0
  0
LINE
  8
0
 62
     0
 10
6.09505
 20
38.4926
 30
0.0
 11
5.97105
 21
39.2659
 31
0.0
  0
LINE
  8
0
 62
     0
 10
5.97105
 20
39.2659
 30
0.0
 11
5.61689
 21
39.963
 31
0.0
  0
LINE
  8
0
 62
     0
 10
5.61689
 20
39.963
 30
0.0
 11
5.06293
 21
40.5158
 31
0.0
  0
LINE
  8
0
 62
     0
 10
5.06293
 20
40.5158
 30
0.0
 11
4.367
 21
40.87
 31
0.0
  0
LINE
  8
0
 62
     0
 10
4.367
 20
40.87
 30
0.0
 11
3.5953
 21
40.9924
 31
0.0
  0
LINE
  8
0
 62
     0
 10
3.5953
 20
40.9924
 30
0.0
 11
0.0950846
 21
40.9924
 31
0.0
  0
LINE
  8
0
 62
     0
 10
0.0950846
 20
40.9924
 30
0.0
 11
0.0950846
 21
95.1548
 31
0.0
  0
LINE
  8
0
 62
     0
 10
0.0950846
 20
95.1548
 30
0.0
 11
285.469
 21
95.1548
 31
0.0
  0
LINE
  8
0
 62
     0
 10
285.469
 20
95.1548
 30
0.0
 11
285.469
 21
40.9924
 31
0.0
  0
LINE
  8
0
 62
     0
 10
123.876
 20
16.593
 30
0.0
 11
123.876
 21
11.8938
 31
0.0
  0
LINE
  8
0
 62
     0
 10
123.876
 20
11.8938
 30
0.0
 11
84.2504
 21
11.8938
 31
0.0
  0
LINE
  8
0
 62
     0
 10
84.2504
 20
11.8938
 30
0.0
 11
84.2504
 21
15.124
 31
0.0
  0
LINE
  8
0
 62
     0
 10
84.2504
 20
15.124
 30
0.0
 11
77.501
 21
15.124
 31
0.0
  0
LINE
  8
0
 62
     0
 10
77.501
 20
15.124
 30
0.0
 11
77.501
 21
11.8938
 31
0.0
  0
LINE
  8
0
 62
     0
 10
77.501
 20
11.8938
 30
0.0
 11
76.6755
 21
11.8938
 31
0.0
  0
LINE
  8
0
 62
     0
 10
76.6755
 20
11.8938
 30
0.0
 11
76.6755
 21
9.09366
 31
0.0
  0
LINE
  8
0
 62
     0
 10
76.6755
 20
9.09366
 30
0.0
 11
77.501
 21
9.09366
 31
0.0
  0
LINE
  8
0
 62
     0
 10
77.501
 20
9.09366
 30
0.0
 11
77.501
 21
2.8236
 31
0.0
  0
LINE
  8
0
 62
     0
 10
77.501
 20
2.8236
 30
0.0
 11
79.2261
 21
2.8236
 31
0.0
  0
LINE
  8
0
 62
     0
 10
79.2261
 20
2.8236
 30
0.0
 11
79.2261
 21
1.62333
 31
0.0
  0
LINE
  8
0
 62
     0
 10
79.2261
 20
1.62333
 30
0.0
 11
82.5253
 21
1.62333
 31
0.0
  0
LINE
  8
0
 62
     0
 10
82.5253
 20
1.62333
 30
0.0
 11
82.5253
 21
2.8236
 31
0.0
  0
LINE
  8
0
 62
     0
 10
82.5253
 20
2.8236
 30
0.0
 11
84.2504
 21
2.8236
 31
0.0
  0
LINE
  8
0
 62
     0
 10
84.2504
 20
2.8236
 30
0.0
 11
84.2504
 21
7.29396
 31
0.0
  0
LINE
  8
0
 62
     0
 10
84.2504
 20
7.29396
 30
0.0
 11
123.876
 21
7.29396
 31
0.0
  0
LINE
  8
0
 62
     0
 10
123.876
 20
7.29396
 30
0.0
 11
123.876
 21
2.59347
 31
0.0
  0
LINE
  8
0
 62
     0
 10
123.876
 20
2.59347
 30
0.0
 11
137.875
 21
2.59347
 31
0.0
  0
LINE
  8
0
 62
     0
 10
137.875
 20
2.59347
 30
0.0
 11
137.875
 21
7.29396
 31
0.0
  0
LINE
  8
0
 62
     0
 10
137.875
 20
7.29396
 30
0.0
 11
177.501
 21
7.29396
 31
0.0
  0
LINE
  8
0
 62
     0
 10
177.501
 20
7.29396
 30
0.0
 11
177.501
 21
2.8236
 31
0.0
  0
LINE
  8
0
 62
     0
 10
177.501
 20
2.8236
 30
0.0
 11
179.225
 21
2.8236
 31
0.0
  0
LINE
  8
0
 62
     0
 10
179.225
 20
2.8236
 30
0.0
 11
179.225
 21
1.62333
 31
0.0
  0
LINE
  8
0
 62
     0
 10
179.225
 20
1.62333
 30
0.0
 11
182.525
 21
1.62333
 31
0.0
  0
LINE
  8
0
 62
     0
 10
182.525
 20
1.62333
 30
0.0
 11
182.525
 21
2.8236
 31
0.0
  0
LINE
  8
0
 62
     0
 10
182.525
 20
2.8236
 30
0.0
 11
184.251
 21
2.8236
 31
0.0
  0
LINE
  8
0
 62
     0
 10
184.251
 20
2.8236
 30
0.0
 11
184.251
 21
9.09366
 31
0.0
  0
LINE
  8
0
 62
     0
 10
184.251
 20
9.09366
 30
0.0
 11
185.075
 21
9.09366
 31
0.0
  0
LINE
  8
0
 62
     0
 10
185.075
 20
9.09366
 30
0.0
 11
185.075
 21
11.8938
 31
0.0
  0
LINE
  8
0
 62
     0
 10
185.075
 20
11.8938
 30
0.0
 11
184.251
 21
11.8938
 31
0.0
  0
LINE
  8
0
 62
     0
 10
184.251
 20
11.8938
 30
0.0
 11
184.251
 21
15.124
 31
0.0
  0
LINE
  8
0
 62
     0
 10
184.251
 20
15.124
 30
0.0
 11
177.501
 21
15.124
 31
0.0
  0
LINE
  8
0
 62
     0
 10
177.501
 20
15.124
 30
0.0
 11
177.501
 21
11.8938
 31
0.0
  0
LINE
  8
0
 62
     0
 10
177.501
 20
11.8938
 30
0.0
 11
137.875
 21
11.8938
 31
0.0
  0
LINE
  8
0
 62
     0
 10
137.875
 20
11.8938
 30
0.0
 11
137.875
 21
16.593
 31
0.0
  0
LINE
  8
0
 62
     0
 10
137.875
 20
16.593
 30
0.0
 11
123.876
 21
16.593
 31
0.0
  0
LINE
  8
0
 62
     0
 10
254.843
 20
16.593
 30
0.0
 11
268.843
 21
16.593
 31
0.0
  0
LINE
  8
0
 62
     0
 10
268.843
 20
16.593
 30
0.0
 11
268.843
 21
2.59347
 31
0.0
  0
LINE
  8
0
 62
     0
 10
268.843
 20
2.59347
 30
0.0
 11
254.843
 21
2.59347
 31
0.0
  0
LINE
  8
0
 62
     0
 10
254.843
 20
2.59347
 30
0.0
 11
254.843
 21
16.593
 31
0.0
  0
LINE
  8
0
 62
     0
 10
235.793
 20
16.593
 30
0.0
 11
249.793
 21
16.593
 31
0.0
  0
LINE
  8
0
 62
     0
 10
249.793
 20
16.593
 30
0.0
 11
249.793
 21
2.59347
 31
0.0
  0
LINE
  8
0
 62
     0
 10
249.793
 20
2.59347
 30
0.0
 11
235.793
 21
2.59347
 31
0.0
  0
LINE
  8
0
 62
     0
 10
235.793
 20
2.59347
 30
0.0
 11
235.793
 21
16.593
 31
0.0
  0
LINE
  8
0
 62
     0
 10
216.745
 20
16.593
 30
0.0
 11
230.744
 21
16.593
 31
0.0
  0
LINE
  8
0
 62
     0
 10
230.744
 20
16.593
 30
0.0
 11
230.744
 21
2.59347
 31
0.0
  0
LINE
  8
0
 62
     0
 10
230.744
 20
2.59347
 30
0.0
 11
216.745
 21
2.59347
 31
0.0
  0
LINE
  8
0
 62
     0
 10
216.745
 20
2.59347
 30
0.0
 11
216.745
 21
16.593
 31
0.0
  0
LINE
  8
0
 62
     0
 10
195.312
 20
16.593
 30
0.0
 11
209.312
 21
16.593
 31
0.0
  0
LINE
  8
0
 62
     0
 10
209.312
 20
16.593
 30
0.0
 11
209.312
 21
2.59347
 31
0.0
  0
LINE
  8
0
 62
     0
 10
209.312
 20
2.59347
 30
0.0
 11
195.312
 21
2.59347
 31
0.0
  0
LINE
  8
0
 62
     0
 10
195.312
 20
2.59347
 30
0.0
 11
195.312
 21
16.593
 31
0.0
  0
LINE
  8
0
 62
     0
 10
54.8171
 20
16.593
 30
0.0
 11
68.8178
 21
16.593
 31
0.0
  0
LINE
  8
0
 62
     0
 10
68.8178
 20
16.593
 30
0.0
 11
68.8178
 21
2.59347
 31
0.0
  0
LINE
  8
0
 62
     0
 10
68.8178
 20
2.59347
 30
0.0
 11
54.8171
 21
2.59347
 31
0.0
  0
LINE
  8
0
 62
     0
 10
54.8171
 20
2.59347
 30
0.0
 11
54.8171
 21
16.593
 31
0.0
  0
LINE
  8
0
 62
     0
 10
35.7699
 20
16.593
 30
0.0
 11
49.7692
 21
16.593
 31
0.0
  0
LINE
  8
0
 62
     0
 10
49.7692
 20
16.593
 30
0.0
 11
49.7692
 21
2.59347
 31
0.0
  0
LINE
  8
0
 62
     0
 10
49.7692
 20
2.59347
 30
0.0
 11
35.7699
 21
2.59347
 31
0.0
  0
LINE
  8
0
 62
     0
 10
35.7699
 20
2.59347
 30
0.0
 11
35.7699
 21
16.593
 31
0.0
  0
LINE
  8
0
 62
     0
 10
16.7197
 20
16.593
 30
0.0
 11
30.7192
 21
16.593
 31
0.0
  0
LINE
  8
0
 62
     0
 10
30.7192
 20
16.593
 30
0.0
 11
30.7192
 21
2.59347
 31
0.0
  0
LINE
  8
0
 62
     0
 10
30.7192
 20
2.59347
 30
0.0
 11
16.7197
 21
2.59347
 31
0.0
  0
LINE
  8
0
 62
     0
 10
16.7197
 20
2.59347
 30
0.0
 11
16.7197
 21
16.593
 31
0.0
  0
LINE
  8
0
 62
     0
 10
190.008
 20
12.1708
 30
0.0
 11
189.312
 21
11.8139
 31
0.0
  0
LINE
  8
0
 62
     0
 10
189.312
 20
11.8139
 30
0.0
 11
188.758
 21
11.2627
 31
0.0
  0
LINE
  8
0
 62
     0
 10
188.758
 20
11.2627
 30
0.0
 11
188.404
 21
10.564
 31
0.0
  0
LINE
  8
0
 62
     0
 10
188.404
 20
10.564
 30
0.0
 11
188.281
 21
9.79233
 31
0.0
  0
LINE
  8
0
 62
     0
 10
188.281
 20
9.79233
 30
0.0
 11
188.404
 21
9.01926
 31
0.0
  0
LINE
  8
0
 62
     0
 10
188.404
 20
9.01926
 30
0.0
 11
188.758
 21
8.32337
 31
0.0
  0
LINE
  8
0
 62
     0
 10
188.758
 20
8.32337
 30
0.0
 11
189.312
 21
7.76937
 31
0.0
  0
LINE
  8
0
 62
     0
 10
189.312
 20
7.76937
 30
0.0
 11
190.008
 21
7.41521
 31
0.0
  0
LINE
  8
0
 62
     0
 10
190.008
 20
7.41521
 30
0.0
 11
190.781
 21
7.29259
 31
0.0
  0
LINE
  8
0
 62
     0
 10
190.781
 20
7.29259
 30
0.0
 11
191.554
 21
7.41521
 31
0.0
  0
LINE
  8
0
 62
     0
 10
191.554
 20
7.41521
 30
0.0
 11
192.252
 21
7.76937
 31
0.0
  0
LINE
  8
0
 62
     0
 10
192.252
 20
7.76937
 30
0.0
 11
192.804
 21
8.32337
 31
0.0
  0
LINE
  8
0
 62
     0
 10
192.804
 20
8.32337
 30
0.0
 11
193.16
 21
9.01926
 31
0.0
  0
LINE
  8
0
 62
     0
 10
193.16
 20
9.01926
 30
0.0
 11
193.281
 21
9.79233
 31
0.0
  0
LINE
  8
0
 62
     0
 10
193.281
 20
9.79233
 30
0.0
 11
193.16
 21
10.564
 31
0.0
  0
LINE
  8
0
 62
     0
 10
193.16
 20
10.564
 30
0.0
 11
192.804
 21
11.2627
 31
0.0
  0
LINE
  8
0
 62
     0
 10
192.804
 20
11.2627
 30
0.0
 11
192.252
 21
11.8139
 31
0.0
  0
LINE
  8
0
 62
     0
 10
192.252
 20
11.8139
 30
0.0
 11
191.554
 21
12.1708
 31
0.0
  0
LINE
  8
0
 62
     0
 10
191.554
 20
12.1708
 30
0.0
 11
190.781
 21
12.2921
 31
0.0
  0
LINE
  8
0
 62
     0
 10
190.781
 20
12.2921
 30
0.0
 11
190.008
 21
12.1708
 31
0.0
  0
LINE
  8
0
 62
     0
 10
14.3371
 20
35.6429
 30
0.0
 11
14.3371
 21
30.9425
 31
0.0
  0
LINE
  8
0
 62
     0
 10
14.3371
 20
30.9425
 30
0.0
 11
12.813
 21
30.9425
 31
0.0
  0
LINE
  8
0
 62
     0
 10
12.813
 20
30.9425
 30
0.0
 11
12.813
 21
34.174
 31
0.0
  0
LINE
  8
0
 62
     0
 10
12.813
 20
34.174
 30
0.0
 11
6.06199
 21
34.174
 31
0.0
  0
LINE
  8
0
 62
     0
 10
6.06199
 20
34.174
 30
0.0
 11
6.06199
 21
30.9425
 31
0.0
  0
LINE
  8
0
 62
     0
 10
6.06199
 20
30.9425
 30
0.0
 11
5.23794
 21
30.9425
 31
0.0
  0
LINE
  8
0
 62
     0
 10
5.23794
 20
30.9425
 30
0.0
 11
5.23794
 21
28.1437
 31
0.0
  0
LINE
  8
0
 62
     0
 10
5.23794
 20
28.1437
 30
0.0
 11
6.06199
 21
28.1437
 31
0.0
  0
LINE
  8
0
 62
     0
 10
6.06199
 20
28.1437
 30
0.0
 11
6.06199
 21
21.8736
 31
0.0
  0
LINE
  8
0
 62
     0
 10
6.06199
 20
21.8736
 30
0.0
 11
7.78729
 21
21.8736
 31
0.0
  0
LINE
  8
0
 62
     0
 10
7.78729
 20
21.8736
 30
0.0
 11
7.78729
 21
20.6733
 31
0.0
  0
LINE
  8
0
 62
     0
 10
7.78729
 20
20.6733
 30
0.0
 11
11.0863
 21
20.6733
 31
0.0
  0
LINE
  8
0
 62
     0
 10
11.0863
 20
20.6733
 30
0.0
 11
11.0863
 21
21.8736
 31
0.0
  0
LINE
  8
0
 62
     0
 10
11.0863
 20
21.8736
 30
0.0
 11
12.813
 21
21.8736
 31
0.0
  0
LINE
  8
0
 62
     0
 10
12.813
 20
21.8736
 30
0.0
 11
12.813
 21
26.344
 31
0.0
  0
LINE
  8
0
 62
     0
 10
12.813
 20
26.344
 30
0.0
 11
14.3371
 21
26.344
 31
0.0
  0
LINE
  8
0
 62
     0
 10
14.3371
 20
26.344
 30
0.0
 11
14.3371
 21
21.6435
 31
0.0
  0
LINE
  8
0
 62
     0
 10
14.3371
 20
21.6435
 30
0.0
 11
28.3366
 21
21.6435
 31
0.0
  0
LINE
  8
0
 62
     0
 10
28.3366
 20
21.6435
 30
0.0
 11
28.3366
 21
26.344
 31
0.0
  0
LINE
  8
0
 62
     0
 10
28.3366
 20
26.344
 30
0.0
 11
29.8621
 21
26.344
 31
0.0
  0
LINE
  8
0
 62
     0
 10
29.8621
 20
26.344
 30
0.0
 11
29.8621
 21
21.8736
 31
0.0
  0
LINE
  8
0
 62
     0
 10
29.8621
 20
21.8736
 30
0.0
 11
31.586
 21
21.8736
 31
0.0
  0
LINE
  8
0
 62
     0
 10
31.586
 20
21.8736
 30
0.0
 11
31.586
 21
20.6733
 31
0.0
  0
LINE
  8
0
 62
     0
 10
31.586
 20
20.6733
 30
0.0
 11
34.8864
 21
20.6733
 31
0.0
  0
LINE
  8
0
 62
     0
 10
34.8864
 20
20.6733
 30
0.0
 11
34.8864
 21
21.8736
 31
0.0
  0
LINE
  8
0
 62
     0
 10
34.8864
 20
21.8736
 30
0.0
 11
36.613
 21
21.8736
 31
0.0
  0
LINE
  8
0
 62
     0
 10
36.613
 20
21.8736
 30
0.0
 11
36.613
 21
28.1437
 31
0.0
  0
LINE
  8
0
 62
     0
 10
36.613
 20
28.1437
 30
0.0
 11
37.4371
 21
28.1437
 31
0.0
  0
LINE
  8
0
 62
     0
 10
37.4371
 20
28.1437
 30
0.0
 11
37.4371
 21
30.9425
 31
0.0
  0
LINE
  8
0
 62
     0
 10
37.4371
 20
30.9425
 30
0.0
 11
36.613
 21
30.9425
 31
0.0
  0
LINE
  8
0
 62
     0
 10
36.613
 20
30.9425
 30
0.0
 11
36.613
 21
34.174
 31
0.0
  0
LINE
  8
0
 62
     0
 10
36.613
 20
34.174
 30
0.0
 11
29.8621
 21
34.174
 31
0.0
  0
LINE
  8
0
 62
     0
 10
29.8621
 20
34.174
 30
0.0
 11
29.8621
 21
30.9425
 31
0.0
  0
LINE
  8
0
 62
     0
 10
29.8621
 20
30.9425
 30
0.0
 11
28.3366
 21
30.9425
 31
0.0
  0
LINE
  8
0
 62
     0
 10
28.3366
 20
30.9425
 30
0.0
 11
28.3366
 21
35.6429
 31
0.0
  0
LINE
  8
0
 62
     0
 10
28.3366
 20
35.6429
 30
0.0
 11
14.3371
 21
35.6429
 31
0.0
  0
LINE
  8
0
 62
     0
 10
261.987
 20
35.6429
 30
0.0
 11
275.987
 21
35.6429
 31
0.0
  0
LINE
  8
0
 62
     0
 10
275.987
 20
35.6429
 30
0.0
 11
275.987
 21
21.6435
 31
0.0
  0
LINE
  8
0
 62
     0
 10
275.987
 20
21.6435
 30
0.0
 11
261.987
 21
21.6435
 31
0.0
  0
LINE
  8
0
 62
     0
 10
261.987
 20
21.6435
 30
0.0
 11
261.987
 21
35.6429
 31
0.0
  0
LINE
  8
0
 62
     0
 10
235.793
 20
35.6429
 30
0.0
 11
249.793
 21
35.6429
 31
0.0
  0
LINE
  8
0
 62
     0
 10
249.793
 20
35.6429
 30
0.0
 11
249.793
 21
21.6435
 31
0.0
  0
LINE
  8
0
 62
     0
 10
249.793
 20
21.6435
 30
0.0
 11
235.793
 21
21.6435
 31
0.0
  0
LINE
  8
0
 62
     0
 10
235.793
 20
21.6435
 30
0.0
 11
235.793
 21
35.6429
 31
0.0
  0
LINE
  8
0
 62
     0
 10
216.745
 20
35.6429
 30
0.0
 11
230.744
 21
35.6429
 31
0.0
  0
LINE
  8
0
 62
     0
 10
230.744
 20
35.6429
 30
0.0
 11
230.744
 21
21.6435
 31
0.0
  0
LINE
  8
0
 62
     0
 10
230.744
 20
21.6435
 30
0.0
 11
216.745
 21
21.6435
 31
0.0
  0
LINE
  8
0
 62
     0
 10
216.745
 20
21.6435
 30
0.0
 11
216.745
 21
35.6429
 31
0.0
  0
LINE
  8
0
 62
     0
 10
197.693
 20
35.6429
 30
0.0
 11
211.693
 21
35.6429
 31
0.0
  0
LINE
  8
0
 62
     0
 10
211.693
 20
35.6429
 30
0.0
 11
211.693
 21
21.6435
 31
0.0
  0
LINE
  8
0
 62
     0
 10
211.693
 20
21.6435
 30
0.0
 11
197.693
 21
21.6435
 31
0.0
  0
LINE
  8
0
 62
     0
 10
197.693
 20
21.6435
 30
0.0
 11
197.693
 21
35.6429
 31
0.0
  0
LINE
  8
0
 62
     0
 10
178.645
 20
35.6429
 30
0.0
 11
192.644
 21
35.6429
 31
0.0
  0
LINE
  8
0
 62
     0
 10
192.644
 20
35.6429
 30
0.0
 11
192.644
 21
21.6435
 31
0.0
  0
LINE
  8
0
 62
     0
 10
192.644
 20
21.6435
 30
0.0
 11
178.645
 21
21.6435
 31
0.0
  0
LINE
  8
0
 62
     0
 10
178.645
 20
21.6435
 30
0.0
 11
178.645
 21
35.6429
 31
0.0
  0
LINE
  8
0
 62
     0
 10
159.595
 20
35.6429
 30
0.0
 11
173.594
 21
35.6429
 31
0.0
  0
LINE
  8
0
 62
     0
 10
173.594
 20
35.6429
 30
0.0
 11
173.594
 21
21.6435
 31
0.0
  0
LINE
  8
0
 62
     0
 10
173.594
 20
21.6435
 30
0.0
 11
159.595
 21
21.6435
 31
0.0
  0
LINE
  8
0
 62
     0
 10
159.595
 20
21.6435
 30
0.0
 11
159.595
 21
35.6429
 31
0.0
  0
LINE
  8
0
 62
     0
 10
140.543
 20
35.6429
 30
0.0
 11
154.543
 21
35.6429
 31
0.0
  0
LINE
  8
0
 62
     0
 10
154.543
 20
35.6429
 30
0.0
 11
154.543
 21
21.6435
 31
0.0
  0
LINE
  8
0
 62
     0
 10
154.543
 20
21.6435
 30
0.0
 11
140.543
 21
21.6435
 31
0.0
  0
LINE
  8
0
 62
     0
 10
140.543
 20
21.6435
 30
0.0
 11
140.543
 21
35.6429
 31
0.0
  0
LINE
  8
0
 62
     0
 10
121.495
 20
35.6429
 30
0.0
 11
135.494
 21
35.6429
 31
0.0
  0
LINE
  8
0
 62
     0
 10
135.494
 20
35.6429
 30
0.0
 11
135.494
 21
21.6435
 31
0.0
  0
LINE
  8
0
 62
     0
 10
135.494
 20
21.6435
 30
0.0
 11
121.495
 21
21.6435
 31
0.0
  0
LINE
  8
0
 62
     0
 10
121.495
 20
21.6435
 30
0.0
 11
121.495
 21
35.6429
 31
0.0
  0
LINE
  8
0
 62
     0
 10
102.443
 20
35.6429
 30
0.0
 11
116.443
 21
35.6429
 31
0.0
  0
LINE
  8
0
 62
     0
 10
116.443
 20
35.6429
 30
0.0
 11
116.443
 21
21.6435
 31
0.0
  0
LINE
  8
0
 62
     0
 10
116.443
 20
21.6435
 30
0.0
 11
102.443
 21
21.6435
 31
0.0
  0
LINE
  8
0
 62
     0
 10
102.443
 20
21.6435
 30
0.0
 11
102.443
 21
35.6429
 31
0.0
  0
LINE
  8
0
 62
     0
 10
83.3949
 20
35.6429
 30
0.0
 11
97.3942
 21
35.6429
 31
0.0
  0
LINE
  8
0
 62
     0
 10
97.3942
 20
35.6429
 30
0.0
 11
97.3942
 21
21.6435
 31
0.0
  0
LINE
  8
0
 62
     0
 10
97.3942
 20
21.6435
 30
0.0
 11
83.3949
 21
21.6435
 31
0.0
  0
LINE
  8
0
 62
     0
 10
83.3949
 20
21.6435
 30
0.0
 11
83.3949
 21
35.6429
 31
0.0
  0
LINE
  8
0
 62
     0
 10
64.3449
 20
35.6429
 30
0.0
 11
78.3442
 21
35.6429
 31
0.0
  0
LINE
  8
0
 62
     0
 10
78.3442
 20
35.6429
 30
0.0
 11
78.3442
 21
21.6435
 31
0.0
  0
LINE
  8
0
 62
     0
 10
78.3442
 20
21.6435
 30
0.0
 11
64.3449
 21
21.6435
 31
0.0
  0
LINE
  8
0
 62
     0
 10
64.3449
 20
21.6435
 30
0.0
 11
64.3449
 21
35.6429
 31
0.0
  0
LINE
  8
0
 62
     0
 10
45.2949
 20
35.6429
 30
0.0
 11
59.2942
 21
35.6429
 31
0.0
  0
LINE
  8
0
 62
     0
 10
59.2942
 20
35.6429
 30
0.0
 11
59.2942
 21
21.6435
 31
0.0
  0
LINE
  8
0
 62
     0
 10
59.2942
 20
21.6435
 30
0.0
 11
45.2949
 21
21.6435
 31
0.0
  0
LINE
  8
0
 62
     0
 10
45.2949
 20
21.6435
 30
0.0
 11
45.2949
 21
35.6429
 31
0.0
  0
LINE
  8
0
 62
     0
 10
257.223
 20
54.6929
 30
0.0
 11
257.223
 21
49.9939
 31
0.0
  0
LINE
  8
0
 62
     0
 10
257.223
 20
49.9939
 30
0.0
 11
255.699
 21
49.9939
 31
0.0
  0
LINE
  8
0
 62
     0
 10
255.699
 20
49.9939
 30
0.0
 11
255.699
 21
53.2225
 31
0.0
  0
LINE
  8
0
 62
     0
 10
255.699
 20
53.2225
 30
0.0
 11
248.95
 21
53.2225
 31
0.0
  0
LINE
  8
0
 62
     0
 10
248.95
 20
53.2225
 30
0.0
 11
248.95
 21
49.9939
 31
0.0
  0
LINE
  8
0
 62
     0
 10
248.95
 20
49.9939
 30
0.0
 11
248.126
 21
49.9939
 31
0.0
  0
LINE
  8
0
 62
     0
 10
248.126
 20
49.9939
 30
0.0
 11
248.126
 21
47.1921
 31
0.0
  0
LINE
  8
0
 62
     0
 10
248.126
 20
47.1921
 30
0.0
 11
248.95
 21
47.1921
 31
0.0
  0
LINE
  8
0
 62
     0
 10
248.95
 20
47.1921
 30
0.0
 11
248.95
 21
40.9236
 31
0.0
  0
LINE
  8
0
 62
     0
 10
248.95
 20
40.9236
 30
0.0
 11
250.675
 21
40.9236
 31
0.0
  0
LINE
  8
0
 62
     0
 10
250.675
 20
40.9236
 30
0.0
 11
250.675
 21
39.7221
 31
0.0
  0
LINE
  8
0
 62
     0
 10
250.675
 20
39.7221
 30
0.0
 11
253.974
 21
39.7221
 31
0.0
  0
LINE
  8
0
 62
     0
 10
253.974
 20
39.7221
 30
0.0
 11
253.974
 21
40.9236
 31
0.0
  0
LINE
  8
0
 62
     0
 10
253.974
 20
40.9236
 30
0.0
 11
255.699
 21
40.9236
 31
0.0
  0
LINE
  8
0
 62
     0
 10
255.699
 20
40.9236
 30
0.0
 11
255.699
 21
45.394
 31
0.0
  0
LINE
  8
0
 62
     0
 10
255.699
 20
45.394
 30
0.0
 11
257.223
 21
45.394
 31
0.0
  0
LINE
  8
0
 62
     0
 10
257.223
 20
45.394
 30
0.0
 11
257.223
 21
40.6922
 31
0.0
  0
LINE
  8
0
 62
     0
 10
257.223
 20
40.6922
 30
0.0
 11
271.224
 21
40.6922
 31
0.0
  0
LINE
  8
0
 62
     0
 10
271.224
 20
40.6922
 30
0.0
 11
271.224
 21
45.394
 31
0.0
  0
LINE
  8
0
 62
     0
 10
271.224
 20
45.394
 30
0.0
 11
272.749
 21
45.394
 31
0.0
  0
LINE
  8
0
 62
     0
 10
272.749
 20
45.394
 30
0.0
 11
272.749
 21
40.9236
 31
0.0
  0
LINE
  8
0
 62
     0
 10
272.749
 20
40.9236
 30
0.0
 11
274.475
 21
40.9236
 31
0.0
  0
LINE
  8
0
 62
     0
 10
274.475
 20
40.9236
 30
0.0
 11
274.475
 21
39.7221
 31
0.0
  0
LINE
  8
0
 62
     0
 10
274.475
 20
39.7221
 30
0.0
 11
277.774
 21
39.7221
 31
0.0
  0
LINE
  8
0
 62
     0
 10
277.774
 20
39.7221
 30
0.0
 11
277.774
 21
40.9236
 31
0.0
  0
LINE
  8
0
 62
     0
 10
277.774
 20
40.9236
 30
0.0
 11
279.499
 21
40.9236
 31
0.0
  0
LINE
  8
0
 62
     0
 10
279.499
 20
40.9236
 30
0.0
 11
279.499
 21
47.1921
 31
0.0
  0
LINE
  8
0
 62
     0
 10
279.499
 20
47.1921
 30
0.0
 11
280.325
 21
47.1921
 31
0.0
  0
LINE
  8
0
 62
     0
 10
280.325
 20
47.1921
 30
0.0
 11
280.325
 21
49.9939
 31
0.0
  0
LINE
  8
0
 62
     0
 10
280.325
 20
49.9939
 30
0.0
 11
279.499
 21
49.9939
 31
0.0
  0
LINE
  8
0
 62
     0
 10
279.499
 20
49.9939
 30
0.0
 11
279.499
 21
53.2225
 31
0.0
  0
LINE
  8
0
 62
     0
 10
279.499
 20
53.2225
 30
0.0
 11
272.749
 21
53.2225
 31
0.0
  0
LINE
  8
0
 62
     0
 10
272.749
 20
53.2225
 30
0.0
 11
272.749
 21
49.9939
 31
0.0
  0
LINE
  8
0
 62
     0
 10
272.749
 20
49.9939
 30
0.0
 11
271.224
 21
49.9939
 31
0.0
  0
LINE
  8
0
 62
     0
 10
271.224
 20
49.9939
 30
0.0
 11
271.224
 21
54.6929
 31
0.0
  0
LINE
  8
0
 62
     0
 10
271.224
 20
54.6929
 30
0.0
 11
257.223
 21
54.6929
 31
0.0
  0
LINE
  8
0
 62
     0
 10
226.27
 20
54.6929
 30
0.0
 11
240.269
 21
54.6929
 31
0.0
  0
LINE
  8
0
 62
     0
 10
240.269
 20
54.6929
 30
0.0
 11
240.269
 21
40.6922
 31
0.0
  0
LINE
  8
0
 62
     0
 10
240.269
 20
40.6922
 30
0.0
 11
226.27
 21
40.6922
 31
0.0
  0
LINE
  8
0
 62
     0
 10
226.27
 20
40.6922
 30
0.0
 11
226.27
 21
54.6929
 31
0.0
  0
LINE
  8
0
 62
     0
 10
207.22
 20
54.6929
 30
0.0
 11
221.219
 21
54.6929
 31
0.0
  0
LINE
  8
0
 62
     0
 10
221.219
 20
54.6929
 30
0.0
 11
221.219
 21
40.6922
 31
0.0
  0
LINE
  8
0
 62
     0
 10
221.219
 20
40.6922
 30
0.0
 11
207.22
 21
40.6922
 31
0.0
  0
LINE
  8
0
 62
     0
 10
207.22
 20
40.6922
 30
0.0
 11
207.22
 21
54.6929
 31
0.0
  0
LINE
  8
0
 62
     0
 10
188.168
 20
54.6929
 30
0.0
 11
202.168
 21
54.6929
 31
0.0
  0
LINE
  8
0
 62
     0
 10
202.168
 20
54.6929
 30
0.0
 11
202.168
 21
40.6922
 31
0.0
  0
LINE
  8
0
 62
     0
 10
202.168
 20
40.6922
 30
0.0
 11
188.168
 21
40.6922
 31
0.0
  0
LINE
  8
0
 62
     0
 10
188.168
 20
40.6922
 30
0.0
 11
188.168
 21
54.6929
 31
0.0
  0
LINE
  8
0
 62
     0
 10
169.12
 20
54.6929
 30
0.0
 11
183.119
 21
54.6929
 31
0.0
  0
LINE
  8
0
 62
     0
 10
183.119
 20
54.6929
 30
0.0
 11
183.119
 21
40.6922
 31
0.0
  0
LINE
  8
0
 62
     0
 10
183.119
 20
40.6922
 30
0.0
 11
169.12
 21
40.6922
 31
0.0
  0
LINE
  8
0
 62
     0
 10
169.12
 20
40.6922
 30
0.0
 11
169.12
 21
54.6929
 31
0.0
  0
LINE
  8
0
 62
     0
 10
150.068
 20
54.6929
 30
0.0
 11
164.068
 21
54.6929
 31
0.0
  0
LINE
  8
0
 62
     0
 10
164.068
 20
54.6929
 30
0.0
 11
164.068
 21
40.6922
 31
0.0
  0
LINE
  8
0
 62
     0
 10
164.068
 20
40.6922
 30
0.0
 11
150.068
 21
40.6922
 31
0.0
  0
LINE
  8
0
 62
     0
 10
150.068
 20
40.6922
 30
0.0
 11
150.068
 21
54.6929
 31
0.0
  0
LINE
  8
0
 62
     0
 10
131.018
 20
54.6929
 30
0.0
 11
145.018
 21
54.6929
 31
0.0
  0
LINE
  8
0
 62
     0
 10
145.018
 20
54.6929
 30
0.0
 11
145.018
 21
40.6922
 31
0.0
  0
LINE
  8
0
 62
     0
 10
145.018
 20
40.6922
 30
0.0
 11
131.018
 21
40.6922
 31
0.0
  0
LINE
  8
0
 62
     0
 10
131.018
 20
40.6922
 30
0.0
 11
131.018
 21
54.6929
 31
0.0
  0
LINE
  8
0
 62
     0
 10
111.967
 20
54.6929
 30
0.0
 11
125.969
 21
54.6929
 31
0.0
  0
LINE
  8
0
 62
     0
 10
125.969
 20
54.6929
 30
0.0
 11
125.969
 21
40.6922
 31
0.0
  0
LINE
  8
0
 62
     0
 10
125.969
 20
40.6922
 30
0.0
 11
111.967
 21
40.6922
 31
0.0
  0
LINE
  8
0
 62
     0
 10
111.967
 20
40.6922
 30
0.0
 11
111.967
 21
54.6929
 31
0.0
  0
LINE
  8
0
 62
     0
 10
92.9185
 20
54.6929
 30
0.0
 11
106.918
 21
54.6929
 31
0.0
  0
LINE
  8
0
 62
     0
 10
106.918
 20
54.6929
 30
0.0
 11
106.918
 21
40.6922
 31
0.0
  0
LINE
  8
0
 62
     0
 10
106.918
 20
40.6922
 30
0.0
 11
92.9185
 21
40.6922
 31
0.0
  0
LINE
  8
0
 62
     0
 10
92.9185
 20
40.6922
 30
0.0
 11
92.9185
 21
54.6929
 31
0.0
  0
LINE
  8
0
 62
     0
 10
73.8685
 20
54.6929
 30
0.0
 11
87.8678
 21
54.6929
 31
0.0
  0
LINE
  8
0
 62
     0
 10
87.8678
 20
54.6929
 30
0.0
 11
87.8678
 21
40.6922
 31
0.0
  0
LINE
  8
0
 62
     0
 10
87.8678
 20
40.6922
 30
0.0
 11
73.8685
 21
40.6922
 31
0.0
  0
LINE
  8
0
 62
     0
 10
73.8685
 20
40.6922
 30
0.0
 11
73.8685
 21
54.6929
 31
0.0
  0
LINE
  8
0
 62
     0
 10
54.8171
 20
54.6929
 30
0.0
 11
68.8178
 21
54.6929
 31
0.0
  0
LINE
  8
0
 62
     0
 10
68.8178
 20
54.6929
 30
0.0
 11
68.8178
 21
40.6922
 31
0.0
  0
LINE
  8
0
 62
     0
 10
68.8178
 20
40.6922
 30
0.0
 11
54.8171
 21
40.6922
 31
0.0
  0
LINE
  8
0
 62
     0
 10
54.8171
 20
40.6922
 30
0.0
 11
54.8171
 21
54.6929
 31
0.0
  0
LINE
  8
0
 62
     0
 10
35.7699
 20
54.6929
 30
0.0
 11
49.7692
 21
54.6929
 31
0.0
  0
LINE
  8
0
 62
     0
 10
49.7692
 20
54.6929
 30
0.0
 11
49.7692
 21
40.6922
 31
0.0
  0
LINE
  8
0
 62
     0
 10
49.7692
 20
40.6922
 30
0.0
 11
35.7699
 21
40.6922
 31
0.0
  0
LINE
  8
0
 62
     0
 10
35.7699
 20
40.6922
 30
0.0
 11
35.7699
 21
54.6929
 31
0.0
  0
LINE
  8
0
 62
     0
 10
9.57598
 20
54.6929
 30
0.0
 11
23.5755
 21
54.6929
 31
0.0
  0
LINE
  8
0
 62
     0
 10
23.5755
 20
54.6929
 30
0.0
 11
23.5755
 21
40.6922
 31
0.0
  0
LINE
  8
0
 62
     0
 10
23.5755
 20
40.6922
 30
0.0
 11
9.57598
 21
40.6922
 31
0.0
  0
LINE
  8
0
 62
     0
 10
9.57598
 20
40.6922
 30
0.0
 11
9.57598
 21
54.6929
 31
0.0
  0
LINE
  8
0
 62
     0
 10
127.71
 20
50.0712
 30
0.0
 11
127.012
 21
49.7156
 31
0.0
  0
LINE
  8
0
 62
     0
 10
127.012
 20
49.7156
 30
0.0
 11
126.46
 21
49.1613
 31
0.0
  0
LINE
  8
0
 62
     0
 10
126.46
 20
49.1613
 30
0.0
 11
126.103
 21
48.4657
 31
0.0
  0
LINE
  8
0
 62
     0
 10
126.103
 20
48.4657
 30
0.0
 11
125.983
 21
47.6913
 31
0.0
  0
LINE
  8
0
 62
     0
 10
125.983
 20
47.6913
 30
0.0
 11
126.103
 21
46.9209
 31
0.0
  0
LINE
  8
0
 62
     0
 10
126.103
 20
46.9209
 30
0.0
 11
126.46
 21
46.222
 31
0.0
  0
LINE
  8
0
 62
     0
 10
126.46
 20
46.222
 30
0.0
 11
127.012
 21
45.671
 31
0.0
  0
LINE
  8
0
 62
     0
 10
127.012
 20
45.671
 30
0.0
 11
127.71
 21
45.314
 31
0.0
  0
LINE
  8
0
 62
     0
 10
127.71
 20
45.314
 30
0.0
 11
128.483
 21
45.1915
 31
0.0
  0
LINE
  8
0
 62
     0
 10
128.483
 20
45.1915
 30
0.0
 11
129.255
 21
45.314
 31
0.0
  0
LINE
  8
0
 62
     0
 10
129.255
 20
45.314
 30
0.0
 11
129.952
 21
45.671
 31
0.0
  0
LINE
  8
0
 62
     0
 10
129.952
 20
45.671
 30
0.0
 11
130.504
 21
46.222
 31
0.0
  0
LINE
  8
0
 62
     0
 10
130.504
 20
46.222
 30
0.0
 11
130.859
 21
46.9209
 31
0.0
  0
LINE
  8
0
 62
     0
 10
130.859
 20
46.9209
 30
0.0
 11
130.983
 21
47.6913
 31
0.0
  0
LINE
  8
0
 62
     0
 10
130.983
 20
47.6913
 30
0.0
 11
130.859
 21
48.4657
 31
0.0
  0
LINE
  8
0
 62
     0
 10
130.859
 20
48.4657
 30
0.0
 11
130.504
 21
49.1613
 31
0.0
  0
LINE
  8
0
 62
     0
 10
130.504
 20
49.1613
 30
0.0
 11
129.952
 21
49.7156
 31
0.0
  0
LINE
  8
0
 62
     0
 10
129.952
 20
49.7156
 30
0.0
 11
129.255
 21
50.0712
 31
0.0
  0
LINE
  8
0
 62
     0
 10
129.255
 20
50.0712
 30
0.0
 11
128.483
 21
50.1908
 31
0.0
  0
LINE
  8
0
 62
     0
 10
128.483
 20
50.1908
 30
0.0
 11
127.71
 21
50.0712
 31
0.0
  0
LINE
  8
0
 62
     0
 10
264.368
 20
73.7429
 30
0.0
 11
278.368
 21
73.7429
 31
0.0
  0
LINE
  8
0
 62
     0
 10
278.368
 20
73.7429
 30
0.0
 11
278.368
 21
59.7436
 31
0.0
  0
LINE
  8
0
 62
     0
 10
278.368
 20
59.7436
 30
0.0
 11
264.368
 21
59.7436
 31
0.0
  0
LINE
  8
0
 62
     0
 10
264.368
 20
59.7436
 30
0.0
 11
264.368
 21
73.7429
 31
0.0
  0
LINE
  8
0
 62
     0
 10
240.556
 20
73.7429
 30
0.0
 11
254.555
 21
73.7429
 31
0.0
  0
LINE
  8
0
 62
     0
 10
254.555
 20
73.7429
 30
0.0
 11
254.555
 21
59.7436
 31
0.0
  0
LINE
  8
0
 62
     0
 10
254.555
 20
59.7436
 30
0.0
 11
240.556
 21
59.7436
 31
0.0
  0
LINE
  8
0
 62
     0
 10
240.556
 20
59.7436
 30
0.0
 11
240.556
 21
73.7429
 31
0.0
  0
LINE
  8
0
 62
     0
 10
221.506
 20
73.7429
 30
0.0
 11
235.507
 21
73.7429
 31
0.0
  0
LINE
  8
0
 62
     0
 10
235.507
 20
73.7429
 30
0.0
 11
235.507
 21
59.7436
 31
0.0
  0
LINE
  8
0
 62
     0
 10
235.507
 20
59.7436
 30
0.0
 11
221.506
 21
59.7436
 31
0.0
  0
LINE
  8
0
 62
     0
 10
221.506
 20
59.7436
 30
0.0
 11
221.506
 21
73.7429
 31
0.0
  0
LINE
  8
0
 62
     0
 10
202.456
 20
73.7429
 30
0.0
 11
216.455
 21
73.7429
 31
0.0
  0
LINE
  8
0
 62
     0
 10
216.455
 20
73.7429
 30
0.0
 11
216.455
 21
59.7436
 31
0.0
  0
LINE
  8
0
 62
     0
 10
216.455
 20
59.7436
 30
0.0
 11
202.456
 21
59.7436
 31
0.0
  0
LINE
  8
0
 62
     0
 10
202.456
 20
59.7436
 30
0.0
 11
202.456
 21
73.7429
 31
0.0
  0
LINE
  8
0
 62
     0
 10
183.406
 20
73.7429
 30
0.0
 11
197.407
 21
73.7429
 31
0.0
  0
LINE
  8
0
 62
     0
 10
197.407
 20
73.7429
 30
0.0
 11
197.407
 21
59.7436
 31
0.0
  0
LINE
  8
0
 62
     0
 10
197.407
 20
59.7436
 30
0.0
 11
183.406
 21
59.7436
 31
0.0
  0
LINE
  8
0
 62
     0
 10
183.406
 20
59.7436
 30
0.0
 11
183.406
 21
73.7429
 31
0.0
  0
LINE
  8
0
 62
     0
 10
164.356
 20
73.7429
 30
0.0
 11
178.357
 21
73.7429
 31
0.0
  0
LINE
  8
0
 62
     0
 10
178.357
 20
73.7429
 30
0.0
 11
178.357
 21
59.7436
 31
0.0
  0
LINE
  8
0
 62
     0
 10
178.357
 20
59.7436
 30
0.0
 11
164.356
 21
59.7436
 31
0.0
  0
LINE
  8
0
 62
     0
 10
164.356
 20
59.7436
 30
0.0
 11
164.356
 21
73.7429
 31
0.0
  0
LINE
  8
0
 62
     0
 10
145.306
 20
73.7429
 30
0.0
 11
159.305
 21
73.7429
 31
0.0
  0
LINE
  8
0
 62
     0
 10
159.305
 20
73.7429
 30
0.0
 11
159.305
 21
59.7436
 31
0.0
  0
LINE
  8
0
 62
     0
 10
159.305
 20
59.7436
 30
0.0
 11
145.306
 21
59.7436
 31
0.0
  0
LINE
  8
0
 62
     0
 10
145.306
 20
59.7436
 30
0.0
 11
145.306
 21
73.7429
 31
0.0
  0
LINE
  8
0
 62
     0
 10
126.256
 20
73.7429
 30
0.0
 11
140.257
 21
73.7429
 31
0.0
  0
LINE
  8
0
 62
     0
 10
140.257
 20
73.7429
 30
0.0
 11
140.257
 21
59.7436
 31
0.0
  0
LINE
  8
0
 62
     0
 10
140.257
 20
59.7436
 30
0.0
 11
126.256
 21
59.7436
 31
0.0
  0
LINE
  8
0
 62
     0
 10
126.256
 20
59.7436
 30
0.0
 11
126.256
 21
73.7429
 31
0.0
  0
LINE
  8
0
 62
     0
 10
107.206
 20
73.7429
 30
0.0
 11
121.205
 21
73.7429
 31
0.0
  0
LINE
  8
0
 62
     0
 10
121.205
 20
73.7429
 30
0.0
 11
121.205
 21
59.7436
 31
0.0
  0
LINE
  8
0
 62
     0
 10
121.205
 20
59.7436
 30
0.0
 11
107.206
 21
59.7436
 31
0.0
  0
LINE
  8
0
 62
     0
 10
107.206
 20
59.7436
 30
0.0
 11
107.206
 21
73.7429
 31
0.0
  0
LINE
  8
0
 62
     0
 10
88.156
 20
73.7429
 30
0.0
 11
102.157
 21
73.7429
 31
0.0
  0
LINE
  8
0
 62
     0
 10
102.157
 20
73.7429
 30
0.0
 11
102.157
 21
59.7436
 31
0.0
  0
LINE
  8
0
 62
     0
 10
102.157
 20
59.7436
 30
0.0
 11
88.156
 21
59.7436
 31
0.0
  0
LINE
  8
0
 62
     0
 10
88.156
 20
59.7436
 30
0.0
 11
88.156
 21
73.7429
 31
0.0
  0
LINE
  8
0
 62
     0
 10
69.106
 20
73.7429
 30
0.0
 11
83.1067
 21
73.7429
 31
0.0
  0
LINE
  8
0
 62
     0
 10
83.1067
 20
73.7429
 30
0.0
 11
83.1067
 21
59.7436
 31
0.0
  0
LINE
  8
0
 62
     0
 10
83.1067
 20
59.7436
 30
0.0
 11
69.106
 21
59.7436
 31
0.0
  0
LINE
  8
0
 62
     0
 10
69.106
 20
59.7436
 30
0.0
 11
69.106
 21
73.7429
 31
0.0
  0
LINE
  8
0
 62
     0
 10
50.056
 20
73.7429
 30
0.0
 11
64.0567
 21
73.7429
 31
0.0
  0
LINE
  8
0
 62
     0
 10
64.0567
 20
73.7429
 30
0.0
 11
64.0567
 21
59.7436
 31
0.0
  0
LINE
  8
0
 62
     0
 10
64.0567
 20
59.7436
 30
0.0
 11
50.056
 21
59.7436
 31
0.0
  0
LINE
  8
0
 62
     0
 10
50.056
 20
59.7436
 30
0.0
 11
50.056
 21
73.7429
 31
0.0
  0
LINE
  8
0
 62
     0
 10
31.0059
 20
73.7429
 30
0.0
 11
45.0053
 21
73.7429
 31
0.0
  0
LINE
  8
0
 62
     0
 10
45.0053
 20
73.7429
 30
0.0
 11
45.0053
 21
59.7436
 31
0.0
  0
LINE
  8
0
 62
     0
 10
45.0053
 20
59.7436
 30
0.0
 11
31.0059
 21
59.7436
 31
0.0
  0
LINE
  8
0
 62
     0
 10
31.0059
 20
59.7436
 30
0.0
 11
31.0059
 21
73.7429
 31
0.0
  0
LINE
  8
0
 62
     0
 10
7.19473
 20
73.7429
 30
0.0
 11
21.1942
 21
73.7429
 31
0.0
  0
LINE
  8
0
 62
     0
 10
21.1942
 20
73.7429
 30
0.0
 11
21.1942
 21
59.7436
 31
0.0
  0
LINE
  8
0
 62
     0
 10
21.1942
 20
59.7436
 30
0.0
 11
7.19473
 21
59.7436
 31
0.0
  0
LINE
  8
0
 62
     0
 10
7.19473
 20
59.7436
 30
0.0
 11
7.19473
 21
73.7429
 31
0.0
  0
LINE
  8
0
 62
     0
 10
259.559
 20
69.4711
 30
0.0
 11
258.862
 21
69.1155
 31
0.0
  0
LINE
  8
0
 62
     0
 10
258.862
 20
69.1155
 30
0.0
 11
258.309
 21
68.5631
 31
0.0
  0
LINE
  8
0
 62
     0
 10
258.309
 20
68.5631
 30
0.0
 11
257.954
 21
67.8656
 31
0.0
  0
LINE
  8
0
 62
     0
 10
257.954
 20
67.8656
 30
0.0
 11
257.831
 21
67.0913
 31
0.0
  0
LINE
  8
0
 62
     0
 10
257.831
 20
67.0913
 30
0.0
 11
257.954
 21
66.3208
 31
0.0
  0
LINE
  8
0
 62
     0
 10
257.954
 20
66.3208
 30
0.0
 11
258.309
 21
65.6237
 31
0.0
  0
LINE
  8
0
 62
     0
 10
258.309
 20
65.6237
 30
0.0
 11
258.862
 21
65.0709
 31
0.0
  0
LINE
  8
0
 62
     0
 10
258.862
 20
65.0709
 30
0.0
 11
259.559
 21
64.7153
 31
0.0
  0
LINE
  8
0
 62
     0
 10
259.559
 20
64.7153
 30
0.0
 11
260.332
 21
64.5915
 31
0.0
  0
LINE
  8
0
 62
     0
 10
260.332
 20
64.5915
 30
0.0
 11
261.104
 21
64.7153
 31
0.0
  0
LINE
  8
0
 62
     0
 10
261.104
 20
64.7153
 30
0.0
 11
261.801
 21
65.0709
 31
0.0
  0
LINE
  8
0
 62
     0
 10
261.801
 20
65.0709
 30
0.0
 11
262.354
 21
65.6237
 31
0.0
  0
LINE
  8
0
 62
     0
 10
262.354
 20
65.6237
 30
0.0
 11
262.708
 21
66.3208
 31
0.0
  0
LINE
  8
0
 62
     0
 10
262.708
 20
66.3208
 30
0.0
 11
262.832
 21
67.0913
 31
0.0
  0
LINE
  8
0
 62
     0
 10
262.832
 20
67.0913
 30
0.0
 11
262.708
 21
67.8656
 31
0.0
  0
LINE
  8
0
 62
     0
 10
262.708
 20
67.8656
 30
0.0
 11
262.354
 21
68.5631
 31
0.0
  0
LINE
  8
0
 62
     0
 10
262.354
 20
68.5631
 30
0.0
 11
261.801
 21
69.1155
 31
0.0
  0
LINE
  8
0
 62
     0
 10
261.801
 20
69.1155
 30
0.0
 11
261.104
 21
69.4711
 31
0.0
  0
LINE
  8
0
 62
     0
 10
261.104
 20
69.4711
 30
0.0
 11
260.332
 21
69.5925
 31
0.0
  0
LINE
  8
0
 62
     0
 10
260.332
 20
69.5925
 30
0.0
 11
259.559
 21
69.4711
 31
0.0
  0
LINE
  8
0
 62
     0
 10
24.7082
 20
69.4711
 30
0.0
 11
24.0123
 21
69.1155
 31
0.0
  0
LINE
  8
0
 62
     0
 10
24.0123
 20
69.1155
 30
0.0
 11
23.4583
 21
68.5631
 31
0.0
  0
LINE
  8
0
 62
     0
 10
23.4583
 20
68.5631
 30
0.0
 11
23.1042
 21
67.8656
 31
0.0
  0
LINE
  8
0
 62
     0
 10
23.1042
 20
67.8656
 30
0.0
 11
22.9829
 21
67.0913
 31
0.0
  0
LINE
  8
0
 62
     0
 10
22.9829
 20
67.0913
 30
0.0
 11
23.1042
 21
66.3208
 31
0.0
  0
LINE
  8
0
 62
     0
 10
23.1042
 20
66.3208
 30
0.0
 11
23.4583
 21
65.6237
 31
0.0
  0
LINE
  8
0
 62
     0
 10
23.4583
 20
65.6237
 30
0.0
 11
24.0123
 21
65.0709
 31
0.0
  0
LINE
  8
0
 62
     0
 10
24.0123
 20
65.0709
 30
0.0
 11
24.7082
 21
64.7153
 31
0.0
  0
LINE
  8
0
 62
     0
 10
24.7082
 20
64.7153
 30
0.0
 11
25.4827
 21
64.5915
 31
0.0
  0
LINE
  8
0
 62
     0
 10
25.4827
 20
64.5915
 30
0.0
 11
26.2544
 21
64.7153
 31
0.0
  0
LINE
  8
0
 62
     0
 10
26.2544
 20
64.7153
 30
0.0
 11
26.9517
 21
65.0709
 31
0.0
  0
LINE
  8
0
 62
     0
 10
26.9517
 20
65.0709
 30
0.0
 11
27.5029
 21
65.6237
 31
0.0
  0
LINE
  8
0
 62
     0
 10
27.5029
 20
65.6237
 30
0.0
 11
27.8598
 21
66.3208
 31
0.0
  0
LINE
  8
0
 62
     0
 10
27.8598
 20
66.3208
 30
0.0
 11
27.9811
 21
67.0913
 31
0.0
  0
LINE
  8
0
 62
     0
 10
27.9811
 20
67.0913
 30
0.0
 11
27.8598
 21
67.8656
 31
0.0
  0
LINE
  8
0
 62
     0
 10
27.8598
 20
67.8656
 30
0.0
 11
27.5029
 21
68.5631
 31
0.0
  0
LINE
  8
0
 62
     0
 10
27.5029
 20
68.5631
 30
0.0
 11
26.9517
 21
69.1155
 31
0.0
  0
LINE
  8
0
 62
     0
 10
26.9517
 20
69.1155
 30
0.0
 11
26.2544
 21
69.4711
 31
0.0
  0
LINE
  8
0
 62
     0
 10
26.2544
 20
69.4711
 30
0.0
 11
25.4827
 21
69.5925
 31
0.0
  0
LINE
  8
0
 62
     0
 10
25.4827
 20
69.5925
 30
0.0
 11
24.7082
 21
69.4711
 31
0.0
  0
LINE
  8
0
 62
     0
 10
259.606
 20
92.7929
 30
0.0
 11
259.606
 21
88.0939
 31
0.0
  0
LINE
  8
0
 62
     0
 10
259.606
 20
88.0939
 30
0.0
 11
258.08
 21
88.0939
 31
0.0
  0
LINE
  8
0
 62
     0
 10
258.08
 20
88.0939
 30
0.0
 11
258.08
 21
91.3239
 31
0.0
  0
LINE
  8
0
 62
     0
 10
258.08
 20
91.3239
 30
0.0
 11
251.331
 21
91.3239
 31
0.0
  0
LINE
  8
0
 62
     0
 10
251.331
 20
91.3239
 30
0.0
 11
251.331
 21
88.0939
 31
0.0
  0
LINE
  8
0
 62
     0
 10
251.331
 20
88.0939
 30
0.0
 11
250.507
 21
88.0939
 31
0.0
  0
LINE
  8
0
 62
     0
 10
250.507
 20
88.0939
 30
0.0
 11
250.507
 21
85.2936
 31
0.0
  0
LINE
  8
0
 62
     0
 10
250.507
 20
85.2936
 30
0.0
 11
251.331
 21
85.2936
 31
0.0
  0
LINE
  8
0
 62
     0
 10
251.331
 20
85.2936
 30
0.0
 11
251.331
 21
79.0222
 31
0.0
  0
LINE
  8
0
 62
     0
 10
251.331
 20
79.0222
 30
0.0
 11
253.056
 21
79.0222
 31
0.0
  0
LINE
  8
0
 62
     0
 10
253.056
 20
79.0222
 30
0.0
 11
253.056
 21
77.8235
 31
0.0
  0
LINE
  8
0
 62
     0
 10
253.056
 20
77.8235
 30
0.0
 11
256.355
 21
77.8235
 31
0.0
  0
LINE
  8
0
 62
     0
 10
256.355
 20
77.8235
 30
0.0
 11
256.355
 21
79.0222
 31
0.0
  0
LINE
  8
0
 62
     0
 10
256.355
 20
79.0222
 30
0.0
 11
258.08
 21
79.0222
 31
0.0
  0
LINE
  8
0
 62
     0
 10
258.08
 20
79.0222
 30
0.0
 11
258.08
 21
83.494
 31
0.0
  0
LINE
  8
0
 62
     0
 10
258.08
 20
83.494
 30
0.0
 11
259.606
 21
83.494
 31
0.0
  0
LINE
  8
0
 62
     0
 10
259.606
 20
83.494
 30
0.0
 11
259.606
 21
78.7936
 31
0.0
  0
LINE
  8
0
 62
     0
 10
259.606
 20
78.7936
 30
0.0
 11
273.605
 21
78.7936
 31
0.0
  0
LINE
  8
0
 62
     0
 10
273.605
 20
78.7936
 30
0.0
 11
273.605
 21
83.494
 31
0.0
  0
LINE
  8
0
 62
     0
 10
273.605
 20
83.494
 30
0.0
 11
275.131
 21
83.494
 31
0.0
  0
LINE
  8
0
 62
     0
 10
275.131
 20
83.494
 30
0.0
 11
275.131
 21
79.0222
 31
0.0
  0
LINE
  8
0
 62
     0
 10
275.131
 20
79.0222
 30
0.0
 11
276.856
 21
79.0222
 31
0.0
  0
LINE
  8
0
 62
     0
 10
276.856
 20
79.0222
 30
0.0
 11
276.856
 21
77.8235
 31
0.0
  0
LINE
  8
0
 62
     0
 10
276.856
 20
77.8235
 30
0.0
 11
280.155
 21
77.8235
 31
0.0
  0
LINE
  8
0
 62
     0
 10
280.155
 20
77.8235
 30
0.0
 11
280.155
 21
79.0222
 31
0.0
  0
LINE
  8
0
 62
     0
 10
280.155
 20
79.0222
 30
0.0
 11
281.88
 21
79.0222
 31
0.0
  0
LINE
  8
0
 62
     0
 10
281.88
 20
79.0222
 30
0.0
 11
281.88
 21
85.2936
 31
0.0
  0
LINE
  8
0
 62
     0
 10
281.88
 20
85.2936
 30
0.0
 11
282.706
 21
85.2936
 31
0.0
  0
LINE
  8
0
 62
     0
 10
282.706
 20
85.2936
 30
0.0
 11
282.706
 21
88.0939
 31
0.0
  0
LINE
  8
0
 62
     0
 10
282.706
 20
88.0939
 30
0.0
 11
281.88
 21
88.0939
 31
0.0
  0
LINE
  8
0
 62
     0
 10
281.88
 20
88.0939
 30
0.0
 11
281.88
 21
91.3239
 31
0.0
  0
LINE
  8
0
 62
     0
 10
281.88
 20
91.3239
 30
0.0
 11
275.131
 21
91.3239
 31
0.0
  0
LINE
  8
0
 62
     0
 10
275.131
 20
91.3239
 30
0.0
 11
275.131
 21
88.0939
 31
0.0
  0
LINE
  8
0
 62
     0
 10
275.131
 20
88.0939
 30
0.0
 11
273.605
 21
88.0939
 31
0.0
  0
LINE
  8
0
 62
     0
 10
273.605
 20
88.0939
 30
0.0
 11
273.605
 21
92.7929
 31
0.0
  0
LINE
  8
0
 62
     0
 10
273.605
 20
92.7929
 30
0.0
 11
259.606
 21
92.7929
 31
0.0
  0
LINE
  8
0
 62
     0
 10
231.031
 20
92.7929
 30
0.0
 11
245.032
 21
92.7929
 31
0.0
  0
LINE
  8
0
 62
     0
 10
245.032
 20
92.7929
 30
0.0
 11
245.032
 21
78.7936
 31
0.0
  0
LINE
  8
0
 62
     0
 10
245.032
 20
78.7936
 30
0.0
 11
231.031
 21
78.7936
 31
0.0
  0
LINE
  8
0
 62
     0
 10
231.031
 20
78.7936
 30
0.0
 11
231.031
 21
92.7929
 31
0.0
  0
LINE
  8
0
 62
     0
 10
211.981
 20
92.7929
 30
0.0
 11
225.982
 21
92.7929
 31
0.0
  0
LINE
  8
0
 62
     0
 10
225.982
 20
92.7929
 30
0.0
 11
225.982
 21
78.7936
 31
0.0
  0
LINE
  8
0
 62
     0
 10
225.982
 20
78.7936
 30
0.0
 11
211.981
 21
78.7936
 31
0.0
  0
LINE
  8
0
 62
     0
 10
211.981
 20
78.7936
 30
0.0
 11
211.981
 21
92.7929
 31
0.0
  0
LINE
  8
0
 62
     0
 10
192.931
 20
92.7929
 30
0.0
 11
206.93
 21
92.7929
 31
0.0
  0
LINE
  8
0
 62
     0
 10
206.93
 20
92.7929
 30
0.0
 11
206.93
 21
78.7936
 31
0.0
  0
LINE
  8
0
 62
     0
 10
206.93
 20
78.7936
 30
0.0
 11
192.931
 21
78.7936
 31
0.0
  0
LINE
  8
0
 62
     0
 10
192.931
 20
78.7936
 30
0.0
 11
192.931
 21
92.7929
 31
0.0
  0
LINE
  8
0
 62
     0
 10
173.881
 20
92.7929
 30
0.0
 11
187.882
 21
92.7929
 31
0.0
  0
LINE
  8
0
 62
     0
 10
187.882
 20
92.7929
 30
0.0
 11
187.882
 21
78.7936
 31
0.0
  0
LINE
  8
0
 62
     0
 10
187.882
 20
78.7936
 30
0.0
 11
173.881
 21
78.7936
 31
0.0
  0
LINE
  8
0
 62
     0
 10
173.881
 20
78.7936
 30
0.0
 11
173.881
 21
92.7929
 31
0.0
  0
LINE
  8
0
 62
     0
 10
154.831
 20
92.7929
 30
0.0
 11
168.83
 21
92.7929
 31
0.0
  0
LINE
  8
0
 62
     0
 10
168.83
 20
92.7929
 30
0.0
 11
168.83
 21
78.7936
 31
0.0
  0
LINE
  8
0
 62
     0
 10
168.83
 20
78.7936
 30
0.0
 11
154.831
 21
78.7936
 31
0.0
  0
LINE
  8
0
 62
     0
 10
154.831
 20
78.7936
 30
0.0
 11
154.831
 21
92.7929
 31
0.0
  0
LINE
  8
0
 62
     0
 10
135.781
 20
92.7929
 30
0.0
 11
149.782
 21
92.7929
 31
0.0
  0
LINE
  8
0
 62
     0
 10
149.782
 20
92.7929
 30
0.0
 11
149.782
 21
78.7936
 31
0.0
  0
LINE
  8
0
 62
     0
 10
149.782
 20
78.7936
 30
0.0
 11
135.781
 21
78.7936
 31
0.0
  0
LINE
  8
0
 62
     0
 10
135.781
 20
78.7936
 30
0.0
 11
135.781
 21
92.7929
 31
0.0
  0
LINE
  8
0
 62
     0
 10
116.731
 20
92.7929
 30
0.0
 11
130.732
 21
92.7929
 31
0.0
  0
LINE
  8
0
 62
     0
 10
130.732
 20
92.7929
 30
0.0
 11
130.732
 21
78.7936
 31
0.0
  0
LINE
  8
0
 62
     0
 10
130.732
 20
78.7936
 30
0.0
 11
116.731
 21
78.7936
 31
0.0
  0
LINE
  8
0
 62
     0
 10
116.731
 20
78.7936
 30
0.0
 11
116.731
 21
92.7929
 31
0.0
  0
LINE
  8
0
 62
     0
 10
97.681
 20
92.7929
 30
0.0
 11
111.682
 21
92.7929
 31
0.0
  0
LINE
  8
0
 62
     0
 10
111.682
 20
92.7929
 30
0.0
 11
111.682
 21
78.7936
 31
0.0
  0
LINE
  8
0
 62
     0
 10
111.682
 20
78.7936
 30
0.0
 11
97.681
 21
78.7936
 31
0.0
  0
LINE
  8
0
 62
     0
 10
97.681
 20
78.7936
 30
0.0
 11
97.681
 21
92.7929
 31
0.0
  0
LINE
  8
0
 62
     0
 10
78.631
 20
92.7929
 30
0.0
 11
92.6317
 21
92.7929
 31
0.0
  0
LINE
  8
0
 62
     0
 10
92.6317
 20
92.7929
 30
0.0
 11
92.6317
 21
78.7936
 31
0.0
  0
LINE
  8
0
 62
     0
 10
92.6317
 20
78.7936
 30
0.0
 11
78.631
 21
78.7936
 31
0.0
  0
LINE
  8
0
 62
     0
 10
78.631
 20
78.7936
 30
0.0
 11
78.631
 21
92.7929
 31
0.0
  0
LINE
  8
0
 62
     0
 10
59.581
 20
92.7929
 30
0.0
 11
73.5803
 21
92.7929
 31
0.0
  0
LINE
  8
0
 62
     0
 10
73.5803
 20
92.7929
 30
0.0
 11
73.5803
 21
78.7936
 31
0.0
  0
LINE
  8
0
 62
     0
 10
73.5803
 20
78.7936
 30
0.0
 11
59.581
 21
78.7936
 31
0.0
  0
LINE
  8
0
 62
     0
 10
59.581
 20
78.7936
 30
0.0
 11
59.581
 21
92.7929
 31
0.0
  0
LINE
  8
0
 62
     0
 10
40.531
 20
92.7929
 30
0.0
 11
54.5317
 21
92.7929
 31
0.0
  0
LINE
  8
0
 62
     0
 10
54.5317
 20
92.7929
 30
0.0
 11
54.5317
 21
78.7936
 31
0.0
  0
LINE
  8
0
 62
     0
 10
54.5317
 20
78.7936
 30
0.0
 11
40.531
 21
78.7936
 31
0.0
  0
LINE
  8
0
 62
     0
 10
40.531
 20
78.7936
 30
0.0
 11
40.531
 21
92.7929
 31
0.0
  0
LINE
  8
0
 62
     0
 10
21.4809
 20
92.7929
 30
0.0
 11
35.4817
 21
92.7929
 31
0.0
  0
LINE
  8
0
 62
     0
 10
35.4817
 20
92.7929
 30
0.0
 11
35.4817
 21
78.7936
 31
0.0
  0
LINE
  8
0
 62
     0
 10
35.4817
 20
78.7936
 30
0.0
 11
21.4809
 21
78.7936
 31
0.0
  0
LINE
  8
0
 62
     0
 10
21.4809
 20
78.7936
 30
0.0
 11
21.4809
 21
92.7929
 31
0.0
  0
LINE
  8
0
 62
     0
 10
2.43086
 20
92.7929
 30
0.0
 11
16.4317
 21
92.7929
 31
0.0
  0
LINE
  8
0
 62
     0
 10
16.4317
 20
92.7929
 30
0.0
 11
16.4317
 21
78.7936
 31
0.0
  0
LINE
  8
0
 62
     0
 10
16.4317
 20
78.7936
 30
0.0
 11
2.43086
 21
78.7936
 31
0.0
  0
LINE
  8
0
 62
     0
 10
2.43086
 20
78.7936
 30
0.0
 11
2.43086
 21
92.7929
 31
0.0
  0
ENDSEC
  0
EOF
